# Blender 5.1.2
# www.blender.org
o Lettus
v -0.120119 0.011929 0.114282
v 0.128962 0.025375 0.130921
v -0.129185 0.013985 -0.132699
v 0.128962 -0.003789 -0.132699
v -0.129097 0.004618 -0.095821
v -0.112327 0.001789 -0.057713
v -0.093963 0.011184 -0.014938
v -0.109370 0.013683 0.022976
v -0.127374 0.012833 0.056804
v -0.122666 0.014307 0.092035
v 0.128962 0.024822 0.104053
v 0.127510 0.015259 0.056441
v 0.111689 0.011663 0.026625
v 0.098167 0.007024 -0.007906
v 0.114198 -0.004160 -0.054372
v 0.128923 -0.002186 -0.095811
v -0.067263 0.013478 0.096237
v -0.034063 0.012362 0.114269
v 0.006163 0.008347 0.115532
v 0.056031 0.010411 0.098744
v 0.092146 0.017924 0.115693
v 0.084886 -0.004262 -0.119154
v 0.040688 -0.004529 -0.104013
v -0.001186 -0.000562 -0.118828
v -0.043136 -0.003456 -0.132699
v -0.086161 0.001276 -0.132699
v 0.090359 0.019307 0.093200
v 0.052841 0.012101 0.079641
v 0.003916 0.007884 0.093399
v -0.036620 0.013550 0.092034
v -0.071880 0.016076 0.077785
v 0.085938 0.016061 0.056695
v 0.043407 0.014869 0.055615
v -0.003336 0.006072 0.058723
v -0.043136 0.014904 0.056827
v -0.085446 0.014610 0.055515
v 0.079147 0.016143 0.024655
v 0.042913 0.013076 0.023224
v -0.001220 0.009532 0.023765
v -0.043136 0.011318 0.023224
v -0.078188 0.012270 0.023124
v 0.071133 0.006672 -0.011347
v 0.042913 0.014410 -0.014369
v -0.000111 0.003630 -0.014525
v -0.043136 0.003677 -0.014504
v -0.069261 0.007580 -0.014712
v 0.080399 -0.005559 -0.056438
v 0.042837 -0.004809 -0.056642
v -0.000111 0.002228 -0.057571
v -0.043136 0.002381 -0.057510
v -0.080192 0.013996 -0.057474
v 0.085385 -0.006060 -0.088691
v 0.041594 -0.006346 -0.078801
v -0.000666 -0.005538 -0.088640
v -0.043136 0.001341 -0.095820
v -0.086161 -0.001477 -0.095820
v -0.120136 0.008963 0.113922
v 0.129491 0.022435 0.130853
v -0.129816 0.011103 -0.133171
v 0.129108 -0.006773 -0.132708
v -0.129370 0.001644 -0.095925
v -0.112011 -0.001172 -0.057466
v -0.093873 0.008199 -0.014864
v -0.109458 0.010699 0.023094
v -0.127290 0.009848 0.056898
v -0.122615 0.011323 0.091887
v 0.129327 0.021860 0.104191
v 0.127489 0.012293 0.056804
v 0.111456 0.008711 0.027021
v 0.098033 0.004122 -0.007206
v 0.114324 -0.007129 -0.054063
v 0.129090 -0.005169 -0.095819
v -0.067288 0.010506 0.095929
v -0.034302 0.009386 0.114166
v 0.006054 0.005361 0.115474
v 0.056490 0.007466 0.098530
v 0.092735 0.014999 0.115545
v 0.084958 -0.007248 -0.119238
v 0.040638 -0.007503 -0.104292
v -0.001296 -0.003544 -0.118973
v -0.043235 -0.006442 -0.132656
v -0.086515 -0.001684 -0.132898
v 0.090779 0.016349 0.093223
v 0.053203 0.009138 0.079509
v 0.003838 0.004898 0.093355
v -0.036879 0.010574 0.091984
v -0.071898 0.013090 0.077694
v 0.086025 0.013080 0.056868
v 0.043723 0.011898 0.055559
v -0.003411 0.003086 0.058707
v -0.043383 0.011928 0.056928
v -0.085419 0.011624 0.055637
v 0.079022 0.013177 0.024991
v 0.043114 0.010099 0.023360
v -0.001106 0.006551 0.023925
v -0.043316 0.008352 0.023534
v -0.078320 0.009296 0.023368
v 0.070903 0.003771 -0.010668
v 0.042904 0.011475 -0.013811
v 0.000022 0.000670 -0.014147
v -0.043393 0.000711 -0.014256
v -0.069505 0.004606 -0.014573
v 0.080361 -0.008513 -0.055990
v 0.042680 -0.007737 -0.056067
v -0.000237 -0.000726 -0.057146
v -0.043466 -0.000577 -0.057247
v -0.080249 0.011018 -0.057238
v 0.085468 -0.009046 -0.088728
v 0.041472 -0.009330 -0.078734
v -0.000863 -0.008517 -0.088531
v -0.043333 -0.001628 -0.095552
v -0.086347 -0.004455 -0.095657
vn -0.0488 0.9988 0.0032
vn -0.1771 0.9839 0.0230
vn -0.0385 0.9883 -0.1478
vn 0.0728 0.9939 -0.0830
vn 0.0874 0.9714 -0.2210
vn -0.0053 0.9685 -0.2491
vn -0.0679 0.9977 0.0018
vn -0.0799 0.9870 -0.1395
vn 0.1065 0.9703 -0.2173
vn 0.0917 0.9878 -0.1261
vn 0.1121 0.9782 -0.1748
vn 0.0013 0.9993 -0.0373
vn -0.1498 0.9886 0.0169
vn 0.2384 0.9708 0.0276
vn 0.0023 0.9995 -0.0313
vn -0.0393 0.9713 -0.2347
vn 0.1367 0.9366 -0.3228
vn 0.0897 0.9938 -0.0655
vn 0.0790 0.9853 -0.1515
vn 0.0223 0.9843 -0.1750
vn -0.1621 0.9848 -0.0616
vn 0.0799 0.9898 -0.1181
vn -0.0054 0.9997 -0.0245
vn 0.0101 0.9960 -0.0883
vn 0.1288 0.9917 0.0022
vn -0.1337 0.9908 0.0213
vn -0.0533 0.9984 -0.0205
vn -0.0444 0.9983 -0.0370
vn 0.0313 0.9994 -0.0129
vn 0.1791 0.9829 -0.0417
vn -0.1256 0.9907 0.0518
vn -0.1073 0.9941 0.0167
vn 0.0057 0.9927 0.1204
vn 0.0101 0.9958 0.0909
vn 0.1189 0.9929 0.0034
vn -0.0521 0.9980 0.0366
vn -0.2345 0.9670 0.0995
vn 0.2110 0.9646 0.1583
vn 0.0222 0.9994 -0.0277
vn 0.0466 0.9989 0.0023
vn 0.0208 0.9924 0.1212
vn 0.0121 0.9978 0.0645
vn 0.0488 -0.9988 -0.0033
vn 0.1773 -0.9839 -0.0232
vn 0.0381 -0.9882 0.1485
vn -0.0729 -0.9939 0.0834
vn -0.0875 -0.9712 0.2215
vn 0.0056 -0.9685 0.2488
vn 0.0676 -0.9977 -0.0011
vn 0.0795 -0.9872 0.1383
vn -0.1069 -0.9702 0.2173
vn -0.0916 -0.9878 0.1260
vn -0.1119 -0.9784 0.1737
vn -0.0014 -0.9993 0.0383
vn 0.1515 -0.9883 -0.0170
vn -0.2389 -0.9706 -0.0279
vn -0.0023 -0.9995 0.0312
vn 0.0391 -0.9713 0.2346
vn -0.1367 -0.9367 0.3224
vn -0.0901 -0.9938 0.0652
vn -0.0792 -0.9853 0.1513
vn -0.0222 -0.9843 0.1751
vn 0.1625 -0.9848 0.0609
vn -0.0805 -0.9897 0.1183
vn 0.0054 -0.9997 0.0244
vn -0.0099 -0.9960 0.0885
vn -0.1284 -0.9917 -0.0029
vn 0.1332 -0.9909 -0.0213
vn 0.0536 -0.9984 0.0202
vn 0.0444 -0.9983 0.0373
vn -0.0313 -0.9994 0.0129
vn -0.1785 -0.9831 0.0417
vn 0.1249 -0.9908 -0.0517
vn 0.1076 -0.9940 -0.0170
vn -0.0058 -0.9927 -0.1209
vn -0.0096 -0.9958 -0.0912
vn -0.1187 -0.9929 -0.0034
vn 0.0523 -0.9980 -0.0363
vn 0.2349 -0.9668 -0.1005
vn -0.2102 -0.9650 -0.1567
vn -0.0225 -0.9994 0.0275
vn -0.0467 -0.9989 -0.0021
vn -0.0213 -0.9925 -0.1200
vn -0.0120 -0.9979 -0.0642
vn -0.9937 -0.0151 0.1112
vn -0.3633 -0.1035 0.9259
vn 0.9986 0.0524 -0.0015
vn 0.0352 0.1084 -0.9935
vn -0.9880 0.1481 0.0447
vn -0.9133 0.0032 0.4073
vn -0.9154 -0.0409 0.4004
vn -0.9260 -0.0124 -0.3774
vn -0.8833 -0.0161 -0.4685
vn -0.9908 -0.0235 0.1334
vn 0.9887 0.1496 -0.0062
vn 0.9975 0.0540 -0.0454
vn 0.8826 -0.0969 -0.4600
vn 0.9295 -0.1234 -0.3477
vn 0.9475 0.0530 0.3154
vn 0.9397 0.0634 0.3361
vn 0.3236 -0.1080 0.9400
vn -0.4812 -0.0393 0.8757
vn -0.0344 -0.0252 0.9991
vn 0.3196 -0.0246 0.9472
vn -0.3996 -0.1275 0.9078
vn -0.2928 0.0043 -0.9562
vn -0.3216 0.0564 -0.9452
vn 0.3363 0.0580 -0.9400
vn 0.3117 0.0054 -0.9502
vn 0.0057 0.0259 -0.9996
vt 0.833333 0.857143
vt 1.000000 0.857143
vt 1.000000 1.000000
vt 0.833333 1.000000
vt 0.833333 0.071429
vt 1.000000 0.071429
vt 1.000000 0.142857
vt 0.833333 0.142857
vt 1.000000 0.285714
vt 0.833333 0.285714
vt 1.000000 0.428571
vt 0.833333 0.428571
vt 1.000000 0.571429
vt 0.833333 0.571429
vt 1.000000 0.714286
vt 0.833333 0.714286
vt 0.000000 0.714286
vt 0.166667 0.714286
vt 0.166667 0.857143
vt 0.000000 0.857143
vt 0.333333 0.714286
vt 0.333333 0.857143
vt 0.500000 0.714286
vt 0.500000 0.857143
vt 0.666667 0.714286
vt 0.666667 0.857143
vt 0.000000 0.571429
vt 0.166667 0.571429
vt 0.333333 0.571429
vt 0.500000 0.571429
vt 0.666667 0.571429
vt 0.000000 0.428571
vt 0.166667 0.428571
vt 0.333333 0.428571
vt 0.500000 0.428571
vt 0.666667 0.428571
vt 0.000000 0.285714
vt 0.166667 0.285714
vt 0.333333 0.285714
vt 0.500000 0.285714
vt 0.666667 0.285714
vt 0.000000 0.142857
vt 0.166667 0.142857
vt 0.333333 0.142857
vt 0.500000 0.142857
vt 0.666667 0.142857
vt 0.000000 0.071429
vt 0.166667 0.071429
vt 0.333333 0.071429
vt 0.500000 0.071429
vt 0.666667 0.071429
vt 0.166667 1.000000
vt 0.000000 1.000000
vt 0.333333 1.000000
vt 0.500000 1.000000
vt 0.666667 1.000000
s 0
f 52/1/1 16/2/1 4/3/1 22/4/1
f 21/5/2 2/6/2 11/7/2 27/8/2
f 27/8/3 11/7/3 12/9/3 32/10/3
f 32/10/4 12/9/4 13/11/4 37/12/4
f 37/12/5 13/11/5 14/13/5 42/14/5
f 42/14/6 14/13/6 15/15/6 47/16/6
f 47/16/7 15/15/7 16/2/7 52/1/7
f 6/17/8 51/18/8 56/19/8 5/20/8
f 51/18/9 50/21/9 55/22/9 56/19/9
f 50/21/10 49/23/10 54/24/10 55/22/10
f 49/23/11 48/25/11 53/26/11 54/24/11
f 48/25/12 47/16/12 52/1/12 53/26/12
f 7/27/13 46/28/13 51/18/13 6/17/13
f 46/28/14 45/29/14 50/21/14 51/18/14
f 45/29/15 44/30/15 49/23/15 50/21/15
f 44/30/16 43/31/16 48/25/16 49/23/16
f 43/31/17 42/14/17 47/16/17 48/25/17
f 8/32/18 41/33/18 46/28/18 7/27/18
f 41/33/19 40/34/19 45/29/19 46/28/19
f 40/34/20 39/35/20 44/30/20 45/29/20
f 39/35/21 38/36/21 43/31/21 44/30/21
f 38/36/22 37/12/22 42/14/22 43/31/22
f 9/37/23 36/38/23 41/33/23 8/32/23
f 36/38/24 35/39/24 40/34/24 41/33/24
f 35/39/25 34/40/25 39/35/25 40/34/25
f 34/40/26 33/41/26 38/36/26 39/35/26
f 33/41/27 32/10/27 37/12/27 38/36/27
f 10/42/28 31/43/28 36/38/28 9/37/28
f 31/43/29 30/44/29 35/39/29 36/38/29
f 30/44/30 29/45/30 34/40/30 35/39/30
f 29/45/31 28/46/31 33/41/31 34/40/31
f 28/46/32 27/8/32 32/10/32 33/41/32
f 1/47/33 17/48/33 31/43/33 10/42/33
f 17/48/34 18/49/34 30/44/34 31/43/34
f 18/49/35 19/50/35 29/45/35 30/44/35
f 19/50/36 20/51/36 28/46/36 29/45/36
f 20/51/37 21/5/37 27/8/37 28/46/37
f 5/20/38 56/19/38 26/52/38 3/53/38
f 56/19/39 55/22/39 25/54/39 26/52/39
f 55/22/40 54/24/40 24/55/40 25/54/40
f 54/24/41 53/26/41 23/56/41 24/55/41
f 53/26/42 52/1/42 22/4/42 23/56/42
f 108/1/43 78/4/43 60/3/43 72/2/43
f 77/5/44 83/8/44 67/7/44 58/6/44
f 83/8/45 88/10/45 68/9/45 67/7/45
f 88/10/46 93/12/46 69/11/46 68/9/46
f 93/12/47 98/14/47 70/13/47 69/11/47
f 98/14/48 103/16/48 71/15/48 70/13/48
f 103/16/49 108/1/49 72/2/49 71/15/49
f 62/17/50 61/20/50 112/19/50 107/18/50
f 107/18/51 112/19/51 111/22/51 106/21/51
f 106/21/52 111/22/52 110/24/52 105/23/52
f 105/23/53 110/24/53 109/26/53 104/25/53
f 104/25/54 109/26/54 108/1/54 103/16/54
f 63/27/55 62/17/55 107/18/55 102/28/55
f 102/28/56 107/18/56 106/21/56 101/29/56
f 101/29/57 106/21/57 105/23/57 100/30/57
f 100/30/58 105/23/58 104/25/58 99/31/58
f 99/31/59 104/25/59 103/16/59 98/14/59
f 64/32/60 63/27/60 102/28/60 97/33/60
f 97/33/61 102/28/61 101/29/61 96/34/61
f 96/34/62 101/29/62 100/30/62 95/35/62
f 95/35/63 100/30/63 99/31/63 94/36/63
f 94/36/64 99/31/64 98/14/64 93/12/64
f 65/37/65 64/32/65 97/33/65 92/38/65
f 92/38/66 97/33/66 96/34/66 91/39/66
f 91/39/67 96/34/67 95/35/67 90/40/67
f 90/40/68 95/35/68 94/36/68 89/41/68
f 89/41/69 94/36/69 93/12/69 88/10/69
f 66/42/70 65/37/70 92/38/70 87/43/70
f 87/43/71 92/38/71 91/39/71 86/44/71
f 86/44/72 91/39/72 90/40/72 85/45/72
f 85/45/73 90/40/73 89/41/73 84/46/73
f 84/46/74 89/41/74 88/10/74 83/8/74
f 57/47/75 66/42/75 87/43/75 73/48/75
f 73/48/76 87/43/76 86/44/76 74/49/76
f 74/49/77 86/44/77 85/45/77 75/50/77
f 75/50/78 85/45/78 84/46/78 76/51/78
f 76/51/79 84/46/79 83/8/79 77/5/79
f 61/20/80 59/53/80 82/52/80 112/19/80
f 112/19/81 82/52/81 81/54/81 111/22/81
f 111/22/82 81/54/82 80/55/82 110/24/82
f 110/24/83 80/55/83 79/56/83 109/26/83
f 109/26/84 79/56/84 78/4/84 108/1/84
f 1/47/85 10/42/85 66/42/85 57/47/85
f 2/6/86 21/5/86 77/5/86 58/6/86
f 4/3/87 16/2/87 72/2/87 60/3/87
f 3/53/88 26/52/88 82/52/88 59/53/88
f 5/20/89 3/53/89 59/53/89 61/20/89
f 6/17/90 5/20/90 61/20/90 62/17/90
f 7/27/91 6/17/91 62/17/91 63/27/91
f 8/32/92 7/27/92 63/27/92 64/32/92
f 9/37/93 8/32/93 64/32/93 65/37/93
f 10/42/94 9/37/94 65/37/94 66/42/94
f 11/7/95 2/6/95 58/6/95 67/7/95
f 12/9/96 11/7/96 67/7/96 68/9/96
f 13/11/97 12/9/97 68/9/97 69/11/97
f 14/13/98 13/11/98 69/11/98 70/13/98
f 15/15/99 14/13/99 70/13/99 71/15/99
f 16/2/100 15/15/100 71/15/100 72/2/100
f 17/48/101 1/47/101 57/47/101 73/48/101
f 18/49/102 17/48/102 73/48/102 74/49/102
f 19/50/103 18/49/103 74/49/103 75/50/103
f 20/51/104 19/50/104 75/50/104 76/51/104
f 21/5/105 20/51/105 76/51/105 77/5/105
f 22/4/106 4/3/106 60/3/106 78/4/106
f 23/56/107 22/4/107 78/4/107 79/56/107
f 24/55/108 23/56/108 79/56/108 80/55/108
f 25/54/109 24/55/109 80/55/109 81/54/109
f 26/52/110 25/54/110 81/54/110 82/52/110
