# Blender 5.1.2
# www.blender.org
mtllib TrashCan.mtl
o Trash
v 0.000000 -0.028686 -0.177909
v 0.000000 0.432445 -0.230566
v 0.088954 -0.028686 -0.154073
v 0.115283 0.432445 -0.199676
v 0.154073 -0.028686 -0.088954
v 0.199676 0.432445 -0.115283
v 0.177909 -0.028686 -0.000000
v 0.230566 0.432445 0.000000
v 0.154073 -0.028686 0.088954
v 0.199676 0.432445 0.115283
v 0.088954 -0.028686 0.154073
v 0.115283 0.432445 0.199676
v 0.000000 -0.028686 0.177909
v 0.000000 0.432445 0.230566
v -0.088954 -0.028686 0.154073
v -0.115283 0.432445 0.199676
v -0.154073 -0.028686 0.088954
v -0.199676 0.432445 0.115283
v -0.177909 -0.028686 -0.000000
v -0.230566 0.432445 0.000000
v -0.154073 -0.028686 -0.088954
v -0.199676 0.432445 -0.115283
v -0.088954 -0.028686 -0.154073
v -0.115283 0.432445 -0.199676
v 0.000000 -0.020675 -0.169618
v 0.000000 0.433753 -0.219112
v 0.084809 -0.020675 -0.146894
v 0.109556 0.433753 -0.189756
v 0.146894 -0.020675 -0.084809
v 0.189756 0.433753 -0.109556
v 0.169618 -0.020675 -0.000000
v 0.219112 0.433753 0.000000
v 0.146894 -0.020675 0.084809
v 0.189756 0.433753 0.109556
v 0.084809 -0.020675 0.146894
v 0.109556 0.433753 0.189756
v 0.000000 -0.020675 0.169618
v -0.000000 0.433753 0.219112
v -0.084809 -0.020675 0.146894
v -0.109556 0.433753 0.189756
v -0.146894 -0.020675 0.084809
v -0.189756 0.433753 0.109556
v -0.169618 -0.020675 -0.000000
v -0.219112 0.433753 0.000000
v -0.146894 -0.020675 -0.084809
v -0.189756 0.433753 -0.109556
v -0.084809 -0.020675 -0.146894
v -0.109556 0.433753 -0.189756
vn 0.2573 -0.1096 -0.9601
vn 0.7028 -0.1096 -0.7028
vn 0.9601 -0.1096 -0.2573
vn 0.9601 -0.1096 0.2573
vn 0.7028 -0.1096 0.7028
vn 0.2573 -0.1096 0.9601
vn -0.2573 -0.1096 0.9601
vn -0.7028 -0.1096 0.7028
vn -0.9601 -0.1096 0.2573
vn -0.9601 -0.1096 -0.2573
vn -0.7028 -0.1096 -0.7028
vn -0.2573 -0.1096 -0.9601
vn -0.0000 -1.0000 -0.0000
vn -0.2574 0.1046 0.9606
vn -0.7032 0.1046 0.7032
vn -0.9606 0.1046 0.2574
vn -0.9606 0.1046 -0.2574
vn -0.7032 0.1046 -0.7032
vn -0.2574 0.1046 -0.9606
vn 0.2574 0.1046 -0.9606
vn 0.7032 0.1046 -0.7032
vn 0.9606 0.1046 -0.2574
vn 0.9606 0.1046 0.2574
vn 0.7032 0.1046 0.7032
vn 0.2574 0.1046 0.9606
vn -0.0000 1.0000 -0.0000
vn 0.0304 0.9931 -0.1134
vn 0.0830 0.9931 -0.0830
vn 0.1134 0.9931 -0.0304
vn 0.1134 0.9931 0.0304
vn 0.0830 0.9931 0.0830
vn 0.0304 0.9931 0.1134
vn -0.0304 0.9931 0.1134
vn -0.0830 0.9931 0.0830
vn -0.1134 0.9931 0.0304
vn -0.1134 0.9931 -0.0304
vn -0.0830 0.9931 -0.0830
vn -0.0304 0.9931 -0.1134
vt 1.000000 0.500000
vt 1.000000 1.000000
vt 0.916667 1.000000
vt 0.916667 0.500000
vt 0.833333 1.000000
vt 0.833333 0.500000
vt 0.750000 1.000000
vt 0.750000 0.500000
vt 0.666667 1.000000
vt 0.666667 0.500000
vt 0.583333 1.000000
vt 0.583333 0.500000
vt 0.500000 1.000000
vt 0.500000 0.500000
vt 0.416667 1.000000
vt 0.416667 0.500000
vt 0.333333 1.000000
vt 0.333333 0.500000
vt 0.250000 1.000000
vt 0.250000 0.500000
vt 0.166667 1.000000
vt 0.166667 0.500000
vt 0.083333 1.000000
vt 0.083333 0.500000
vt 0.000000 1.000000
vt 0.000000 0.500000
vt 0.750000 0.490000
vt 0.870000 0.457846
vt 0.957846 0.370000
vt 0.990000 0.250000
vt 0.957846 0.130000
vt 0.870000 0.042154
vt 0.750000 0.010000
vt 0.630000 0.042154
vt 0.542154 0.130000
vt 0.510000 0.250000
vt 0.542154 0.370000
vt 0.630000 0.457846
s 0
f 1/1/1 2/2/1 4/3/1 3/4/1
f 3/4/2 4/3/2 6/5/2 5/6/2
f 5/6/3 6/5/3 8/7/3 7/8/3
f 7/8/4 8/7/4 10/9/4 9/10/4
f 9/10/5 10/9/5 12/11/5 11/12/5
f 11/12/6 12/11/6 14/13/6 13/14/6
f 13/14/7 14/13/7 16/15/7 15/16/7
f 15/16/8 16/15/8 18/17/8 17/18/8
f 17/18/9 18/17/9 20/19/9 19/20/9
f 19/20/10 20/19/10 22/21/10 21/22/10
f 21/22/11 22/21/11 24/23/11 23/24/11
f 23/24/12 24/23/12 2/25/12 1/26/12
f 1/27/13 3/28/13 5/29/13 7/30/13 9/31/13 11/32/13 13/33/13 15/34/13 17/35/13 19/36/13 21/37/13 23/38/13
f 25/1/14 27/4/14 28/3/14 26/2/14
f 27/4/15 29/6/15 30/5/15 28/3/15
f 29/6/16 31/8/16 32/7/16 30/5/16
f 31/8/17 33/10/17 34/9/17 32/7/17
f 33/10/18 35/12/18 36/11/18 34/9/18
f 35/12/19 37/14/19 38/13/19 36/11/19
f 37/14/20 39/16/20 40/15/20 38/13/20
f 39/16/21 41/18/21 42/17/21 40/15/21
f 41/18/22 43/20/22 44/19/22 42/17/22
f 43/20/23 45/22/23 46/21/23 44/19/23
f 45/22/24 47/24/24 48/23/24 46/21/24
f 47/24/25 25/26/25 26/25/25 48/23/25
f 25/27/26 47/38/26 45/37/26 43/36/26 41/35/26 39/34/26 37/33/26 35/32/26 33/31/26 31/30/26 29/29/26 27/28/26
f 4/3/27 2/2/27 26/2/27 28/3/27
f 6/5/28 4/3/28 28/3/28 30/5/28
f 8/7/29 6/5/29 30/5/29 32/7/29
f 10/9/30 8/7/30 32/7/30 34/9/30
f 12/11/31 10/9/31 34/9/31 36/11/31
f 14/13/32 12/11/32 36/11/32 38/13/32
f 16/15/33 14/13/33 38/13/33 40/15/33
f 18/17/34 16/15/34 40/15/34 42/17/34
f 20/19/35 18/17/35 42/17/35 44/19/35
f 22/21/36 20/19/36 44/19/36 46/21/36
f 24/23/37 22/21/37 46/21/37 48/23/37
f 2/25/38 24/23/38 48/23/38 26/25/38
