# Blender 5.1.2
# www.blender.org
o Knife
v 0.013438 -0.000505 -0.080965
v 0.013438 0.026994 -0.080965
v 0.000429 0.021741 0.297289
v 0.000429 0.025009 0.300763
v -0.013438 -0.000505 -0.080965
v -0.013438 0.026994 -0.080965
v -0.000429 0.021741 0.297289
v -0.000429 0.025009 0.300763
v 0.003901 0.025009 0.120706
v 0.003901 0.025009 0.145487
v 0.003901 0.025009 0.170267
v 0.003901 0.025009 0.195047
v 0.003901 0.025009 0.219827
v 0.003901 0.025009 0.244607
v 0.003901 0.025009 0.269387
v 0.003901 0.025009 0.294167
v -0.000429 -0.044511 0.107032
v -0.000429 -0.040394 0.133611
v -0.000429 -0.035179 0.160191
v -0.000429 -0.028866 0.186770
v -0.000429 -0.021455 0.213349
v -0.000429 -0.011025 0.239929
v -0.000429 0.001326 0.266508
v -0.000429 0.018892 0.293088
v 0.000429 0.018892 0.293088
v 0.000429 0.001326 0.266508
v 0.000429 -0.011025 0.239929
v 0.000429 -0.021455 0.213349
v 0.000429 -0.028866 0.186770
v 0.000429 -0.035179 0.160191
v 0.000429 -0.040394 0.133611
v 0.000429 -0.044511 0.107032
v -0.003901 0.025009 0.294167
v -0.003901 0.025009 0.269387
v -0.003901 0.025009 0.244607
v -0.003901 0.025009 0.219827
v -0.003901 0.025009 0.195047
v -0.003901 0.025009 0.170267
v -0.003901 0.025009 0.145487
v -0.003901 0.025009 0.120706
v 0.013438 0.000105 0.078287
v -0.013438 0.026994 0.079384
v 0.013438 0.026994 0.079384
v -0.013438 0.000105 0.078287
v 0.013438 0.000021 0.039297
v 0.013438 -0.000337 -0.000515
v 0.013438 -0.000147 -0.041152
v -0.013438 0.026994 0.039297
v -0.013438 0.026994 -0.000790
v -0.013438 0.026994 -0.040877
v 0.013438 0.026994 -0.040877
v 0.013438 0.026994 -0.000790
v 0.013438 0.026994 0.039297
v -0.013438 -0.000147 -0.041152
v -0.013438 -0.000337 -0.000515
v -0.013438 0.000021 0.039297
v 0.000429 -0.049726 0.071681
v -0.003901 0.025009 0.087749
v 0.003901 0.025009 0.087749
v -0.000429 -0.049726 0.071681
v 0.002251 -0.003108 0.080282
v -0.003901 0.025009 0.086101
v 0.003901 0.025009 0.086101
v -0.002251 -0.003108 0.080282
v 0.002251 0.000300 0.079729
v -0.003901 0.025009 0.086015
v 0.003901 0.025009 0.086015
v -0.002251 0.000300 0.079729
v 0.009412 0.003615 -0.080965
v 0.009412 0.022874 -0.080965
v -0.009412 0.022874 -0.080965
v -0.009412 0.003615 -0.080965
vn 0.9341 -0.3129 0.1719
vn 0.8986 -0.3678 0.2393
vn 0.7917 -0.4777 0.3807
vn -0.0000 -0.7805 0.6252
vn -0.0000 -0.7284 0.6852
vn -1.0000 -0.0000 -0.0000
vn -0.0000 -0.0000 -1.0000
vn -0.0000 -1.0000 0.0022
vn -0.0000 -1.0000 0.0090
vn -0.0000 1.0000 -0.0000
vn 0.3699 -0.1432 0.9180
vn -0.7917 -0.4777 0.3807
vn -0.8986 -0.3678 0.2393
vn -0.9341 -0.3129 0.1719
vn -0.9815 -0.1826 0.0569
vn -0.9872 -0.1536 0.0440
vn -0.9943 -0.1040 0.0235
vn -0.9951 -0.0970 0.0212
vn -0.9968 -0.0791 0.0142
vn -0.9970 -0.0760 0.0127
vn -0.9977 -0.0667 0.0090
vn -0.9978 -0.0652 0.0086
vn -0.9982 -0.0594 0.0068
vn -0.9983 -0.0584 0.0064
vn -0.9985 -0.0544 0.0050
vn -0.9985 -0.0537 0.0048
vn -0.9987 -0.0507 0.0040
vn -0.9987 -0.0502 0.0039
vn -0.0000 -0.8309 0.5564
vn -0.0000 -0.8730 0.4877
vn -0.0000 -0.9193 0.3935
vn -0.0000 -0.9483 0.3173
vn -0.0000 -0.9683 0.2499
vn -0.0000 -0.9773 0.2118
vn -0.0000 -0.9850 0.1728
vn -0.0000 -0.9888 0.1495
vn 0.9988 -0.0480 -0.0004
vn 0.9970 -0.0338 -0.0700
vn 0.9987 -0.0507 0.0040
vn 0.9987 -0.0502 0.0039
vn 0.9985 -0.0544 0.0050
vn 0.9985 -0.0537 0.0048
vn 0.9982 -0.0594 0.0068
vn 0.9983 -0.0584 0.0064
vn 0.9977 -0.0667 0.0090
vn 0.9978 -0.0652 0.0086
vn 0.9968 -0.0791 0.0142
vn 0.9970 -0.0760 0.0127
vn 0.9943 -0.1040 0.0235
vn 0.9951 -0.0970 0.0212
vn 0.9815 -0.1826 0.0569
vn 0.9872 -0.1536 0.0440
vn 1.0000 -0.0000 -0.0000
vn -0.0000 0.9840 0.1783
vn -0.0000 0.9966 0.0826
vn -0.0000 -0.9910 0.1339
vn -0.0000 -0.9999 0.0122
vn -0.3699 -0.1432 0.9180
vn -0.0000 -1.0000 0.0056
vn 0.9863 -0.0153 -0.1642
vn 0.9872 -0.0199 -0.1583
vn -0.9970 -0.0338 -0.0700
vn -0.9988 -0.0480 -0.0004
vn -0.0000 -0.9893 0.1459
vn 0.9886 -0.0278 -0.1482
vn -0.9872 -0.0199 -0.1583
vn -0.9863 -0.0153 -0.1642
vn -0.0000 0.1814 -0.9834
vn -0.0000 0.0086 -1.0000
vn -0.9886 -0.0278 -0.1482
vn -0.0000 -0.1603 -0.9871
vt 0.044251 0.771693
vt 0.064316 0.784941
vt 0.049006 0.804758
vt 0.045486 0.788994
vt 0.044309 0.957156
vt 0.028982 0.962180
vt 0.028063 0.959428
vt 0.043443 0.954384
vt 0.900571 0.135362
vt 0.808715 0.136099
vt 0.809027 0.000186
vt 0.902390 0.000767
vt 0.723424 0.544134
vt 0.723424 0.637298
vt 0.709782 0.623340
vt 0.709782 0.558092
vt 0.625684 0.135301
vt 0.534581 0.135967
vt 0.533187 0.001347
vt 0.624366 0.000330
vt 0.717689 0.136070
vt 0.717724 0.000186
vt 0.631736 0.544134
vt 0.631998 0.649158
vt 0.595583 0.630508
vt 0.590771 0.548573
vt 0.290273 0.015950
vt 0.293793 0.000186
vt 0.309102 0.020003
vt 0.289038 0.033251
vt 0.343579 0.097114
vt 0.273642 0.137962
vt 0.377041 0.177342
vt 0.267591 0.233562
vt 0.406022 0.259824
vt 0.261841 0.326514
vt 0.431037 0.343553
vt 0.261432 0.416555
vt 0.452577 0.428190
vt 0.260828 0.505911
vt 0.470901 0.513255
vt 0.260608 0.594987
vt 0.486322 0.598271
vt 0.261467 0.684220
vt 0.059975 0.949493
vt 0.060762 0.952290
vt 0.163920 0.920403
vt 0.164701 0.923200
vt 0.259565 0.893726
vt 0.260345 0.896524
vt 0.352744 0.867751
vt 0.353524 0.870549
vt 0.442792 0.842646
vt 0.443572 0.845444
vt 0.531939 0.817771
vt 0.532719 0.820569
vt 0.620326 0.793104
vt 0.621106 0.795902
vt 0.708086 0.768598
vt 0.708873 0.771394
vt 0.253574 0.917469
vt 0.253611 0.914559
vt 0.276038 0.903040
vt 0.275833 0.929462
vt 0.359911 0.903506
vt 0.359862 0.929940
vt 0.443779 0.903344
vt 0.443899 0.929782
vt 0.527697 0.902822
vt 0.527881 0.929257
vt 0.611641 0.902206
vt 0.611838 0.928640
vt 0.695593 0.901577
vt 0.695785 0.928013
vt 0.779566 0.901003
vt 0.779712 0.927441
vt 0.863594 0.900725
vt 0.863588 0.927159
vt 0.015822 0.000186
vt 0.258798 0.094516
vt 0.241536 0.206673
vt 0.016680 0.120724
vt 0.226114 0.291688
vt 0.015822 0.209957
vt 0.207790 0.376754
vt 0.016042 0.299033
vt 0.186251 0.461391
vt 0.016645 0.388389
vt 0.161235 0.545120
vt 0.017054 0.478430
vt 0.132255 0.627602
vt 0.022804 0.571382
vt 0.098792 0.707830
vt 0.028856 0.666982
vt 0.626670 0.407926
vt 0.718067 0.407920
vt 0.718294 0.543762
vt 0.627071 0.540101
vt 0.569604 0.630126
vt 0.533187 0.649158
vt 0.574404 0.548588
vt 0.533406 0.544200
vt 0.718003 0.271981
vt 0.625635 0.273083
vt 0.809492 0.543525
vt 0.809105 0.407751
vt 0.808910 0.271937
vt 0.536014 0.540321
vt 0.535582 0.408319
vt 0.534727 0.273449
vt 0.900623 0.539480
vt 0.900500 0.407461
vt 0.901465 0.272745
vt 0.167965 0.054071
vt 0.259522 0.088927
vt 0.503584 0.710428
vt 0.260608 0.804758
vt 0.824464 0.735307
vt 0.825279 0.738095
vt 0.975315 0.901108
vt 0.975178 0.927534
vt 0.179632 0.054000
vt 0.260237 0.087541
vt 0.504308 0.716017
vt 0.412751 0.750873
vt 0.976751 0.683901
vt 0.981046 0.698542
vt 0.980904 0.901155
vt 0.980774 0.927582
vt 0.505023 0.717403
vt 0.424419 0.750944
vt 0.988168 0.680851
vt 0.992209 0.695460
vt 0.981450 0.901159
vt 0.981320 0.927575
vt 0.645064 0.753699
vt 0.645064 0.688451
vt 0.708835 0.688451
vt 0.708835 0.753699
vt 0.632369 0.637298
vt 0.632369 0.544134
vt 0.646011 0.558092
vt 0.646011 0.623340
s 1
f 25/1/1 16/2/2 4/3/3 3/4/3
f 3/5/4 4/6/5 8/7/5 7/8/4
f 54/9/6 50/10/6 6/11/6 5/12/6
f 5/13/7 6/14/7 71/15/7 72/16/7
f 47/17/8 54/18/8 5/19/9 1/20/9
f 50/10/10 51/21/10 2/22/10 6/11/10
f 41/23/11 43/24/11 67/25/11 65/26/11
f 7/27/12 8/28/12 33/29/13 24/30/14
f 24/30/14 33/29/13 34/31/15 23/32/16
f 23/32/16 34/31/15 35/33/17 22/34/18
f 22/34/18 35/33/17 36/35/19 21/36/20
f 21/36/20 36/35/19 37/37/21 20/38/22
f 20/38/22 37/37/21 38/39/23 19/40/24
f 19/40/24 38/39/23 39/41/25 18/42/26
f 18/42/26 39/41/25 40/43/27 17/44/28
f 3/5/4 7/8/4 24/45/29 25/46/29
f 25/46/29 24/45/29 23/47/30 26/48/30
f 26/48/30 23/47/30 22/49/31 27/50/31
f 27/50/31 22/49/31 21/51/32 28/52/32
f 28/52/32 21/51/32 20/53/33 29/54/33
f 29/54/33 20/53/33 19/55/34 30/56/34
f 30/56/34 19/55/34 18/57/35 31/58/35
f 31/58/35 18/57/35 17/59/36 32/60/36
f 8/61/10 4/62/10 16/63/10 33/64/10
f 33/64/10 16/63/10 15/65/10 34/66/10
f 34/66/10 15/65/10 14/67/10 35/68/10
f 35/68/10 14/67/10 13/69/10 36/70/10
f 36/70/10 13/69/10 12/71/10 37/72/10
f 37/72/10 12/71/10 11/73/10 38/74/10
f 38/74/10 11/73/10 10/75/10 39/76/10
f 39/76/10 10/75/10 9/77/10 40/78/10
f 57/79/37 59/80/38 9/81/39 32/82/40
f 32/82/40 9/81/39 10/83/41 31/84/42
f 31/84/42 10/83/41 11/85/43 30/86/44
f 30/86/44 11/85/43 12/87/45 29/88/46
f 29/88/46 12/87/45 13/89/47 28/90/48
f 28/90/48 13/89/47 14/91/49 27/92/50
f 27/92/50 14/91/49 15/93/51 26/94/52
f 26/94/52 15/93/51 16/2/2 25/1/1
f 45/95/53 53/96/53 43/97/53 41/98/53
f 66/99/54 67/25/54 43/24/55 42/100/55
f 65/26/56 68/101/56 44/102/57 41/23/57
f 68/101/58 66/99/58 42/100/58 44/102/58
f 1/20/53 2/22/53 51/21/53 47/17/53
f 47/17/53 51/21/53 52/103/53 46/104/53
f 46/104/53 52/103/53 53/96/53 45/95/53
f 42/105/55 43/97/55 53/96/10 48/106/10
f 48/106/10 53/96/10 52/103/10 49/107/10
f 49/107/10 52/103/10 51/21/10 50/10/10
f 41/98/57 44/108/57 56/109/59 45/95/59
f 45/95/59 56/109/59 55/110/8 46/104/8
f 46/104/8 55/110/8 54/18/8 47/17/8
f 44/111/6 42/105/6 48/106/6 56/112/6
f 56/112/6 48/106/6 49/107/6 55/113/6
f 55/113/6 49/107/6 50/10/6 54/9/6
f 61/114/60 63/115/61 59/80/38 57/79/37
f 17/44/28 40/43/27 58/116/62 60/117/63
f 32/60/36 17/59/36 60/118/64 57/119/64
f 40/78/10 9/77/10 59/120/10 58/121/10
f 65/122/65 67/123/65 63/115/61 61/114/60
f 60/117/63 58/116/62 62/124/66 64/125/67
f 57/119/68 60/118/68 64/126/69 61/127/69
f 58/121/10 59/120/10 63/128/10 62/129/10
f 64/125/67 62/124/66 66/130/70 68/131/70
f 61/127/69 64/126/69 68/132/71 65/133/71
f 62/129/10 63/128/10 67/134/54 66/135/54
f 72/136/7 71/137/7 70/138/7 69/139/7
f 2/140/7 1/141/7 69/142/7 70/143/7
f 1/141/7 5/13/7 72/16/7 69/142/7
f 6/14/7 2/140/7 70/143/7 71/15/7
